<svg width="28" height="36" viewBox="0 0 28 36" fill="none" xmlns="http://www.w3.org/2000/svg">
<path d="M17.2939 0.60396C17.4445 0.597381 17.5869 0.614299 17.7318 0.657166C18.9545 1.01887 21.0157 3.13004 21.8068 4.14675C22.3256 4.81349 22.7889 5.58382 23.188 6.32768C24.8566 9.4381 25.9079 13.3934 24.8328 16.8677C24.3097 18.558 23.1818 20.2747 21.7192 21.2866C21.4162 21.4963 21.0728 21.6493 20.7468 21.8205C21.6194 21.8155 22.6247 21.0793 23.6196 21.6238C23.9998 21.832 24.136 22.1539 24.2532 22.5448C24.1504 22.8534 24.0197 23.1464 23.8127 23.3998C23.6039 23.6554 22.9788 24.0045 22.9046 24.3025C23.0053 24.3906 24.7999 24.354 25.1323 24.4239C25.7985 24.5637 26.2966 25.0456 26.656 25.6021C27.2304 26.4915 27.2864 27.5514 27.0686 28.5666C26.5374 31.0435 24.6114 33.3868 22.5216 34.7359C21.6904 35.2723 20.4264 35.5376 19.4476 35.3229C18.5022 35.1155 17.8727 34.3955 17.3738 33.6184C17.0559 33.9745 16.6313 34.2328 16.1908 34.4108C15.2267 34.8005 13.984 34.6891 13.0457 34.2868C12.6913 34.5084 12.3651 34.8471 11.9745 34.9992C11.8641 35.0421 11.7443 35.0671 11.6336 35.0136C11.195 34.8014 10.7912 34.2987 10.3892 34.0089C10.05 33.7644 9.60009 33.6148 9.21708 33.4498L8.65403 33.169C7.93507 33.4998 7.66543 33.8083 6.80503 33.7488C5.37741 33.6499 4.02797 32.8633 3.1056 31.795C2.67486 31.2961 2.36722 30.7555 2.06403 30.1749C1.20458 28.5289 0.694426 26.7322 0.838048 24.8566C0.891994 24.1521 1.13886 23.4157 1.69294 22.9466C2.0677 22.6293 2.51664 22.5191 3.00044 22.5612C4.51239 22.693 5.92083 24.0374 6.86513 25.1469C7.12676 25.4544 7.35391 25.7902 7.61408 26.1004C7.72256 25.9116 7.81697 25.7139 7.91529 25.5197C7.4335 25.2353 7.1813 25.0582 6.94939 24.5335C6.95776 24.3594 6.98973 24.1823 7.0118 24.0091C6.61158 23.5438 6.13745 23.1928 5.8668 22.6224C5.74688 22.3697 5.77876 21.8902 5.87511 21.6351C5.96868 21.3873 6.14958 21.202 6.39297 21.0989C6.96107 20.8581 7.70847 21.0739 8.24847 21.2892C7.32019 20.4498 6.62591 19.6144 6.18194 18.43C5.75111 17.2805 5.59637 16.0199 5.58051 14.7992C5.54093 11.7527 6.19809 9.49212 7.45371 6.74973C7.91138 5.75015 9.47326 2.67532 10.4454 2.3438C11.2678 2.0633 12.0184 4.12506 12.7042 4.42485C13.0311 4.5677 14.2214 4.00799 14.5951 3.85169C16.178 3.18985 15.955 2.72203 16.5425 1.32039C16.6961 0.954108 16.9337 0.74902 17.2939 0.60396ZM17.4542 1.30989C17.4501 1.31288 17.4458 1.31585 17.4415 1.31889C17.2426 1.46203 17.1891 1.65387 17.1153 1.87477C16.9407 2.39763 16.7904 2.95778 16.4864 3.42439C16.0065 4.16113 14.818 4.51762 14.0247 4.78795C13.6366 4.92019 12.9962 5.22171 12.5915 5.15862C12.1027 5.08237 11.3824 3.90756 11.0483 3.51835C10.8986 3.34393 10.7276 3.18989 10.5498 3.04473C10.2149 3.48159 9.82885 3.90533 9.53027 4.36595C9.22149 4.84225 8.9766 5.38355 8.71679 5.88922C7.45139 8.35218 6.61722 10.8519 6.40824 13.6238C6.34063 14.5205 6.32121 15.4572 6.43889 16.3517C6.66407 18.0634 7.44984 19.753 8.84547 20.8186C10.3178 21.9427 11.6721 22.2223 13.4879 22.2514C14.0245 22.2601 14.5867 22.2763 15.1191 22.203C15.154 22.1982 15.1889 22.1929 15.2237 22.1872C15.1828 21.7561 15.1389 21.2791 15.2194 20.8514L14.5271 21.1824C14.5859 21.0184 14.6855 20.8199 14.6644 20.644C14.571 20.4864 14.3869 20.4325 14.2189 20.3902C14.0434 20.346 13.8344 20.3096 13.6618 20.3762L13.6264 20.4442C13.802 20.7722 14.3696 20.7423 14.431 21.076C14.2963 21.2033 14.1485 21.211 13.9676 21.2056C13.527 21.1927 12.9224 20.9817 12.6221 20.6489C12.5417 20.56 12.4868 20.4464 12.4927 20.3242C12.5069 20.0311 13.0261 19.906 12.8324 19.6292C12.5734 19.5115 12.1482 19.5766 11.8857 19.6767C11.8061 19.7071 11.7495 19.7496 11.6924 19.8117C11.6737 19.9201 11.6693 19.9525 11.7327 20.0436C11.8175 20.1656 11.9951 20.2407 11.9682 20.4131C11.9621 20.4527 11.9475 20.4923 11.9341 20.5299C11.8293 20.5969 11.7676 20.6079 11.6436 20.58C11.3127 20.5056 10.7218 20.1825 10.5434 19.8877C10.4884 19.7968 10.4957 19.7539 10.5127 19.6512C10.5904 19.5613 10.6018 19.5217 10.7217 19.5018L11.0622 19.6357L11.1095 19.613C11.01 19.3808 10.5996 19.1761 10.402 18.9996C9.81494 18.4747 9.01109 17.7 8.71366 16.9652C8.7419 16.6001 8.70887 16.169 9.0067 15.9156C9.03295 15.8934 9.05939 15.8714 9.08604 15.8496C9.07397 15.5596 8.87791 15.3156 8.86106 15.0362C8.84 14.687 8.94174 14.3002 8.98076 13.9506C9.00785 13.7078 9.00105 13.4611 8.99819 13.2172C8.98231 11.867 8.72711 10.5046 8.52318 9.17366C8.45765 8.74598 8.29946 8.03808 8.61733 7.70096C8.74577 7.56475 8.91276 7.45337 9.10597 7.44912C9.41617 7.44232 9.76027 7.68143 9.97211 7.89286C10.302 8.22209 10.5142 9.00576 10.9309 9.17019L11.0243 9.13469C11.1217 8.77761 11.1854 8.55072 11.4195 8.25255C10.9611 8.08301 9.88982 7.80118 9.68048 7.33248C9.63659 7.23422 9.6488 7.18081 9.668 7.07909C9.75752 6.95574 9.84804 6.87859 9.97336 6.7925C10.8861 6.53609 12.6914 7.23735 13.5164 7.69905C13.8769 7.90077 14.2108 8.1542 14.3267 8.57011C14.4203 8.90523 14.3838 9.29873 14.4209 9.64575C14.5966 9.73865 14.8268 9.89491 15.0235 9.91346C15.3569 9.66913 15.5003 8.99858 15.7666 8.64603C16.0281 8.29962 16.3746 7.96752 16.7497 7.74634C17.4503 7.33322 19.3192 6.79671 20.1287 6.92337C20.3 6.95016 20.4874 7.01224 20.594 7.15827C20.6633 7.25324 20.6874 7.3739 20.6663 7.4889C20.6323 7.67516 20.4989 7.85327 20.3429 7.95607C20.1933 8.05466 20.0194 8.11829 19.8531 8.18296C20.8382 8.71711 21.0679 9.25052 21.5179 10.2401C21.6448 10.5189 21.8009 10.7756 21.9332 11.0493C21.7827 11.3475 21.6007 11.7917 21.2515 11.8997C20.6953 12.0716 20.5137 11.5656 19.9982 12.1658C20.1683 12.4988 20.4113 13.3646 20.6424 13.5812C20.7056 13.6403 20.8183 13.6767 20.8989 13.7025C21.1819 13.7931 21.6472 13.8232 21.8228 14.079C21.8587 14.1976 21.8495 14.2874 21.793 14.3985C21.7012 14.5787 21.553 14.7261 21.4632 14.9037C21.2542 15.3167 21.2981 15.5573 20.8793 15.8662C20.7148 15.8864 20.5486 15.9127 20.3828 15.9182C20.3422 16.435 20.2322 16.722 19.834 17.0638C19.1327 17.6658 18.3091 18.2257 17.6749 18.8937C17.6548 19.2949 17.755 20.3839 17.4829 20.6478L17.3988 20.6647C17.2825 20.5384 17.2989 20.394 17.3056 20.23C17.3234 19.7937 17.2575 19.3655 17.2708 18.9279C16.9879 19.0001 16.6248 19.0645 16.4585 19.3336C16.3372 19.5298 16.3847 19.8038 16.2644 19.9968C16.1251 20.2201 15.8234 20.3085 15.6829 20.5279C15.5756 20.6948 15.6573 21.8554 15.5803 22.2334C16.3751 22.2592 17.2966 22.3328 18.0792 22.2036C19.0658 22.0408 21.0676 20.9338 21.7872 20.2561C22.156 19.9089 22.4516 19.5061 22.7439 19.095C23.7622 17.6629 24.343 16.1474 24.3914 14.3796C24.4136 13.5669 24.3918 12.7271 24.2725 11.9217C23.9531 9.76685 22.918 7.13995 21.7076 5.31781C21.2614 4.64591 20.723 4.01385 20.1686 3.4295C19.6027 2.83291 18.259 1.33623 17.4542 1.30989ZM23.6457 25.0501C22.0426 25.134 20.3683 26.278 19.3228 27.4363C18.6242 28.2103 18.1319 29.1506 17.972 30.1877C17.8443 31.4661 17.8794 30.9388 17.8736 31.4949C17.8632 32.4802 17.9995 33.4098 18.506 33.9916C18.5518 34.0435 18.6001 34.0931 18.6509 34.1403C18.7018 34.1874 18.7548 34.232 18.81 34.274C18.8651 34.3159 18.9222 34.3549 18.9814 34.3912C19.0404 34.4274 19.1011 34.4607 19.1635 34.4909C19.2258 34.5213 19.2895 34.5484 19.3545 34.5723C19.4197 34.5961 19.4858 34.6168 19.5529 34.6342C19.6199 34.6516 19.6877 34.6656 19.7563 34.6763C19.8247 34.687 19.8935 34.6942 19.9627 34.6981C20.1094 34.7067 20.2585 34.7046 20.4052 34.7008C22.0066 34.5325 23.3138 33.5216 24.2989 32.3062C25.4362 30.903 26.5606 28.9753 26.3592 27.1095C26.2901 26.4703 25.9931 25.7751 25.4808 25.3671C24.9953 24.9802 24.2523 24.9739 23.6617 25.0476C23.6563 25.0481 23.6509 25.0492 23.6457 25.0501ZM10.092 7.09227C10.0638 7.21046 10.052 7.221 10.1182 7.33073C10.9702 7.90904 12.161 7.78547 12.9379 8.49031C13.027 8.76584 13.1281 9.07549 12.9816 9.35235C12.9357 9.43933 12.8731 9.47819 12.7872 9.52063C12.6315 9.54185 12.5006 9.50209 12.3743 9.40727C12.1349 9.22775 12.1289 8.58001 11.7767 8.61957C11.6767 8.63078 11.6416 8.65569 11.5626 8.71743C11.4332 8.97503 11.6535 9.40666 11.2919 9.5267C11.0403 9.61022 10.7755 9.54187 10.5247 9.49081C10.2069 9.03721 10.0461 8.49647 9.72001 8.05084C9.46718 7.96568 9.19957 7.85216 8.93036 7.91759C8.84486 7.99031 8.80373 8.02604 8.79709 8.14712C8.78172 8.42762 8.90617 8.72705 8.93042 9.00891C8.99991 9.8172 9.17005 10.5957 9.28572 11.3963C9.45609 12.5758 9.48122 13.9059 9.22414 15.0716C9.33319 15.3428 9.44254 15.7794 9.71646 15.9174C9.83524 15.9102 9.88868 15.8973 9.97316 15.8095C10.2463 15.5256 10.3077 14.9226 10.2838 14.5445C10.2398 13.8502 9.7091 9.88189 9.81758 9.61761L9.88146 9.56876C10.1469 9.63974 10.3035 9.98048 10.4337 10.2059C11.0293 11.2368 11.1114 12.5004 11.2407 13.667C11.277 13.9949 11.2854 14.375 11.3819 14.6882C11.4156 14.7981 11.5111 14.8609 11.6187 14.8877C11.7436 14.9187 11.8429 14.9202 11.9622 14.8726C12.0643 14.7822 12.0911 14.6913 12.0985 14.5568C12.1172 14.2185 12.0024 13.3485 12.2573 13.1171C12.3485 13.0341 12.4861 13.0161 12.6045 13.0277C12.7996 13.0467 13.021 13.1536 13.199 13.236C13.4017 13.8693 13.2701 14.999 13.5826 15.3426C13.6669 15.3669 13.6886 15.3842 13.7702 15.3416C14.3998 15.0132 14.5046 13.0036 15.0478 12.8125C15.2248 12.7503 15.86 12.9084 16.0627 12.9645C16.1453 12.9874 16.2538 13.0291 16.3003 13.1064C16.5271 13.4829 16.1411 15.4513 16.5656 15.8706C16.6412 15.8443 16.6496 15.8334 16.6853 15.76C16.9609 15.1923 16.8026 14.4695 17.0352 13.8925C17.2211 13.4313 17.633 13.4542 17.7566 13.1953L17.705 13.0815C17.5405 12.9284 17.1551 12.6361 17.1405 12.4076C17.1238 12.1429 17.3932 11.3345 17.5693 11.1438C17.6366 11.0709 17.7233 11.0387 17.8214 11.0384C18.05 11.0376 18.4977 11.2851 18.6554 11.448C18.9923 11.7966 20.1046 14.771 20.2664 15.3811C20.4431 15.4245 20.6266 15.4884 20.8076 15.442C20.9894 15.2688 20.9214 14.9072 21.0899 14.6844C21.1853 14.5581 21.4031 14.4169 21.4106 14.2542C21.3372 14.1577 21.2843 14.127 21.1608 14.1111C20.9164 14.0797 20.5677 14.1167 20.4025 13.899C20.0632 13.4519 19.8301 12.641 19.6069 12.1082C19.8841 11.7276 20.1508 11.5535 20.5623 11.3326C20.7221 11.4296 20.9327 11.6013 21.1293 11.5455C21.3064 11.4953 21.4495 11.2558 21.5561 11.1145C21.0722 10.2484 20.8129 8.87125 19.7356 8.56658C19.2667 8.43401 18.5567 8.41063 18.1165 8.65226C17.7358 8.86126 17.5487 9.31333 17.1997 9.5776L17.1749 9.59654C17.026 9.70952 16.8971 9.72589 16.7144 9.70126C16.6136 9.68769 16.5271 9.66926 16.4407 9.61443C16.407 9.4689 16.5157 9.27167 16.5951 9.14557C17.0174 8.47433 17.8353 8.1855 18.572 8.02256C18.7423 7.98493 18.9234 7.95672 19.0885 7.90209C19.2175 7.85939 19.3435 7.77773 19.4762 7.75208C19.6661 7.71532 19.8884 7.76043 20.0707 7.69741C20.1616 7.66598 20.2266 7.60615 20.2909 7.53691C20.3222 7.4268 20.3206 7.42234 20.2756 7.3168C19.9994 7.14623 19.492 7.27249 19.1974 7.34227C18.6811 7.46446 17.2993 7.80485 16.897 8.03331C16.5904 8.20733 16.2047 8.63397 16.0202 8.93435C15.8535 9.20414 15.7089 9.4853 15.5864 9.77785C15.3455 10.3643 14.8889 12.0569 14.3824 12.3973L14.2947 12.3892C14.1133 12.0987 14.195 11.1142 14.2807 10.782C14.3402 10.5505 14.6369 10.4074 14.6678 10.1861C14.5276 10.0296 14.2565 9.95668 14.0684 9.86627C14.0497 9.37438 14.1651 8.6627 13.7714 8.29377C13.2403 7.79593 11.1004 7.04952 10.3725 7.076C10.2789 7.07935 10.1854 7.08477 10.092 7.09227ZM2.54551 23.2834C2.15189 23.4265 1.92077 23.6191 1.74334 24.003C1.12616 25.3386 1.58868 27.4331 2.07866 28.744C2.69208 30.3851 3.83028 32.0541 5.46902 32.7958C6.09443 33.079 6.76844 33.1587 7.43534 32.9829C7.71983 32.8617 7.96708 32.6823 8.20712 32.4891C7.94067 32.1442 7.77278 31.7236 7.60427 31.3245C7.16397 30.2821 6.79774 29.2848 6.94867 28.1322C7.00811 27.6783 7.12521 27.2529 7.32552 26.8416C6.4187 25.5039 4.84155 23.6362 3.20197 23.3174C2.9927 23.2767 2.75811 23.2704 2.54551 23.2834ZM15.214 13.2501C15.2068 13.257 15.1994 13.2636 15.1924 13.2706C14.8162 13.6444 14.8325 14.8319 14.1003 15.5283C13.9736 15.6489 13.8049 15.7729 13.6219 15.774C13.4977 15.7747 13.3911 15.7083 13.3092 15.6192C12.9071 15.1822 13.0289 13.722 12.8295 13.6039C12.7071 13.6584 12.6355 13.8295 12.5924 13.9489C12.4709 14.2854 12.5989 14.9888 12.2476 15.1738C11.9525 15.3291 11.4645 15.2412 11.1463 15.2024C11.1339 15.6465 11.1964 16.0885 11.1902 16.5322C11.6473 16.5254 12.7881 16.3821 13.127 16.7257C13.2251 16.825 13.2678 17.0002 13.3137 17.1295L13.8263 17.3859C14.1044 17.534 14.3744 17.728 14.7022 17.6323C15.071 17.5243 15.4507 16.8325 15.75 16.5591C16.3739 16.4672 17.0152 16.5462 17.6249 16.366C17.6225 15.7341 17.7032 14.6874 17.5813 14.1022L17.5019 14.0635C17.4136 14.119 17.3882 14.159 17.365 14.2629C17.3158 14.4833 17.1918 16.0543 17.068 16.1395C16.9038 16.2523 16.6162 16.2715 16.425 16.2306C16.3954 16.2241 16.3666 16.2148 16.3388 16.2026C16.3109 16.1904 16.2846 16.1755 16.2598 16.1581C16.2349 16.1406 16.212 16.1209 16.191 16.0989C16.17 16.0769 16.1514 16.0531 16.1352 16.0274C15.7793 15.4739 16.3564 13.3706 15.757 13.2489C15.5878 13.2146 15.3855 13.2356 15.214 13.2501ZM22.5058 22.1681C21.3923 22.2817 20.3913 22.608 19.4069 23.1363C19.1999 23.2474 18.9472 23.3577 18.794 23.5406C18.7474 23.596 18.7025 23.6529 18.7121 23.7303C18.7495 24.036 18.8993 24.3893 18.992 24.6856C19.1716 25.2596 19.2762 25.8154 19.3063 26.4172L19.7971 26.0107C20.0432 25.8077 20.2867 25.6216 20.5646 25.4634C20.8764 25.2857 22.1414 24.8049 22.2494 24.5756C22.0955 24.4512 21.9229 24.5259 21.7827 24.3754C21.8898 23.8345 23.8235 23.2027 23.2209 22.3213C23.157 22.2277 23.0414 22.1899 22.9329 22.1721C22.7867 22.1479 22.6528 22.1436 22.5058 22.1681ZM9.75663 25.9987C10.0095 26.4942 12.1271 26.73 12.422 27.7458C12.5798 28.289 12.3394 28.8268 12.3914 29.3649L12.4241 29.3679C12.5186 29.1805 12.5224 28.9464 12.5469 28.7404C12.573 28.5205 12.5849 28.2674 12.7064 28.0757C12.9242 27.7314 13.8305 27.3989 14.2299 27.2652C14.5701 27.1512 14.9535 27.1041 15.2858 27.2706C15.6116 27.4338 15.7918 27.7611 15.8978 28.0953C16.1224 28.804 15.9617 29.8221 15.9187 30.5579C15.9624 30.5727 15.9907 30.5953 16.0337 30.5736C16.4389 30.368 16.7611 29.5596 16.8831 29.1516C17.0883 28.465 17.1382 27.7047 16.7861 27.0583C16.757 27.0043 16.7253 26.9519 16.6909 26.901C16.6565 26.8501 16.6198 26.8011 16.5805 26.754C16.5413 26.7068 16.4998 26.6617 16.456 26.6186C16.4122 26.5756 16.3663 26.5349 16.3184 26.4964C16.2706 26.458 16.2209 26.422 16.1694 26.3886C16.1179 26.3552 16.0649 26.3244 16.0103 26.2962C15.9558 26.2681 15.9 26.2428 15.8429 26.2203C15.7858 26.1977 15.7277 26.1781 15.6686 26.1614C15.077 25.9927 14.3132 26.0698 13.7714 26.3657C13.5009 26.5135 12.7292 27.3307 12.4592 27.2445C12.3028 27.1946 12.1968 27.0493 12.0946 26.9282C11.3925 26.0964 10.837 25.9429 9.75663 25.9987ZM6.73372 21.7604C6.60192 21.8176 6.50643 21.8488 6.44654 21.9908C6.38718 22.1317 6.42361 22.2792 6.48389 22.4134C6.81855 23.1585 7.99969 23.7611 8.09271 23.9643C7.98349 24.1386 7.71126 24.2602 7.54029 24.3736C7.7445 24.6656 7.94715 24.7869 8.26305 24.9392C8.4739 24.7691 8.64229 24.5851 8.81486 24.3767C9.25037 23.9303 9.75395 23.5318 10.2243 23.1216C9.21649 22.4089 8.02403 21.6466 6.73372 21.7604ZM17.4254 23.2098C17.0437 23.7645 17.095 24.8906 16.7477 25.6079C17.0883 25.9263 17.4256 26.2428 17.6515 26.6573C17.7583 26.853 17.8421 27.067 17.8889 27.2853C17.937 27.5091 17.8931 28.0953 18.0036 28.2382L18.0632 28.2084C18.2473 27.8484 18.5335 27.5247 18.6863 27.1582C18.9592 26.5043 18.5774 25.1863 18.3614 24.5187C18.2333 24.1222 18.0306 23.469 17.6317 23.2647C17.566 23.231 17.4985 23.2173 17.4254 23.2098ZM12.1781 30.9201C11.6774 31.3297 10.9821 31.7027 10.3702 31.9074C9.90926 31.7938 9.51862 31.5907 9.09967 31.3737C9.77125 32.0038 10.4085 32.6697 11.075 33.3054C11.3234 33.5693 11.5601 33.8227 11.8785 34.0049C12.2845 33.7745 12.6331 33.4593 12.9832 33.1535C12.6806 33.1004 12.2625 33.0768 12.0712 32.803C12.0106 32.7165 11.9982 32.6149 12.0195 32.5132C12.1005 32.1261 12.5588 31.7751 12.8453 31.5351C12.6646 31.3758 12.3784 30.9845 12.1781 30.9201ZM18.6901 12.4591C18.7486 12.9854 18.8343 13.7703 18.6224 14.2617L18.5576 14.3067C18.4037 14.1768 18.3769 13.9859 18.3605 13.7918C18.3393 13.5392 18.3584 13.274 18.3668 13.0203L18.328 13.0042C17.9708 13.5903 17.9836 15.2451 18.0472 15.9519C18.0707 16.0901 18.0792 16.2037 18.1901 16.2995C18.416 16.4214 18.8575 16.3416 19.0966 16.267C19.2321 16.2248 19.375 16.157 19.4438 16.0252C19.5752 15.7731 19.3633 15.1759 19.579 14.6143C19.4807 14.3207 18.8953 12.5604 18.7112 12.4682C18.7043 12.4648 18.6971 12.4621 18.6901 12.4591ZM16.3706 31.6658C15.2123 33.2642 15.1389 32.9031 13.5648 33.8112C13.8631 33.8807 14.177 33.9721 14.4846 33.972C15.2897 34.0035 16.0236 33.8875 16.6379 33.3223C16.9859 33.0019 17.1157 32.631 17.2399 32.1867C17.0332 32.109 16.4214 31.6698 16.3706 31.6658ZM9.04641 26.2428C8.50518 26.5612 8.1222 27.1194 7.96373 27.7234C7.74108 28.572 7.81978 29.5749 8.26717 30.339C8.37535 30.5237 8.49568 30.7212 8.62632 30.89C8.69105 30.7993 8.73701 28.6461 8.92044 28.1506C8.97137 28.0131 9.07767 27.8799 9.16287 27.7607C8.95259 27.5847 8.64782 27.3849 8.61959 27.0866C8.60523 26.9347 8.68679 26.7865 8.78334 26.6753C8.87553 26.5691 9.12251 26.3826 9.11616 26.2579L9.04641 26.2428ZM14.5161 23.0287C14.5123 23.2805 14.4484 24.2178 14.5181 24.3969C14.6383 24.4509 14.7805 24.4447 14.9031 24.3988C15.3063 24.2478 15.4996 23.5267 15.8738 23.506C15.9431 23.573 15.9595 23.6058 15.9579 23.7048C15.9543 23.9343 15.7734 24.2984 15.9345 24.4869C15.9383 24.4912 15.9422 24.4953 15.946 24.4995C16.1417 24.5754 16.3433 24.6454 16.535 24.7302C16.6716 24.1965 16.7053 23.6151 16.88 23.0987C16.1136 23.1136 15.2723 23.1781 14.5161 23.0287ZM11.6811 23.0001C10.6276 23.4225 9.81089 23.9818 9.08092 24.851C8.96654 24.9873 8.78221 25.1635 8.70619 25.3239C8.68585 25.3667 8.67419 25.4187 8.66065 25.4644C8.6986 25.4574 8.7371 25.4554 8.76923 25.4333C9.30224 25.1385 9.8036 25.0076 10.4128 25.0306C10.6391 24.5049 10.8608 23.9964 11.2793 23.5906C11.4525 23.4229 11.7099 23.276 11.8303 23.0681L11.7984 23.0116L11.6811 23.0001ZM10.4583 28.3954C10.2607 28.7259 10.1893 29.4491 10.2807 29.8237C10.3149 29.9637 10.3824 30.1079 10.5116 30.1822C10.5608 30.2107 10.6146 30.2328 10.6686 30.2501C10.7459 29.8678 10.9897 28.8609 10.7735 28.5378C10.7108 28.444 10.5646 28.415 10.4583 28.3954ZM11.5324 24.0628C11.228 24.3261 11.0705 24.7203 10.9067 25.0794C11.0909 25.1188 11.2759 25.1647 11.462 25.1939C11.586 25.1748 11.7592 25.1806 11.833 25.0641C11.9686 24.8503 11.9923 24.5909 11.9236 24.3515C11.8954 24.2529 11.8398 24.1587 11.7439 24.1132C11.6808 24.0831 11.6012 24.0732 11.5324 24.0628ZM12.9539 23.0305C12.8646 23.125 12.8468 23.1729 12.8498 23.3041C12.8531 23.4357 12.9665 23.5462 13.0585 23.6274C13.1965 23.749 13.4537 23.8873 13.644 23.8696C13.6777 23.8666 13.7014 23.8245 13.7219 23.7987C13.7453 23.769 13.7558 23.7462 13.7677 23.7109C13.8821 23.4762 13.9937 23.2396 14.1152 23.0085C13.7286 23.0166 13.3403 23.0317 12.9539 23.0305ZM14.0753 28.5945C14.0024 28.989 13.8031 29.8923 14.0346 30.2384C14.0989 30.3345 14.2342 30.3954 14.344 30.4211C14.3815 29.9976 14.6295 29.1093 14.3613 28.775C14.2929 28.6899 14.18 28.6229 14.0753 28.5945ZM13.3821 24.252C13.1198 24.2669 12.7652 24.2302 12.577 24.437C12.4774 24.5464 12.2924 24.8265 12.2978 24.9813C12.2985 25.0029 12.2994 25.0045 12.3025 25.0234L12.3802 25.0443C12.6311 25.0458 12.9037 25.0751 13.0999 24.8875C13.2539 24.7401 13.3513 24.5162 13.4482 24.3285L13.4359 24.248L13.3821 24.252ZM10.5707 15.2862C10.512 15.5307 10.4565 15.7552 10.3469 15.9825C10.2792 16.1229 10.0018 16.1796 10.0135 16.3081C10.0861 16.3328 10.1587 16.3571 10.2316 16.3808C10.3595 16.4155 10.5612 16.5013 10.6863 16.4461C10.7224 16.2284 10.7535 15.5328 10.6365 15.3487C10.6185 15.3203 10.5989 15.3035 10.5707 15.2862Z" fill="white"/>
<path d="M11.1003 9.93155C11.1696 9.94251 11.2326 9.9689 11.293 10.0041C11.3906 10.0612 11.4499 10.1522 11.4767 10.2613C11.5229 10.449 11.4654 10.6346 11.3705 10.7958C11.22 10.7316 11.0529 10.6548 10.9905 10.4902C10.9168 10.2959 11.0218 10.1062 11.1003 9.93155Z" fill="white"/>
<path d="M16.4516 11.636C16.5269 11.5972 16.5845 11.6101 16.664 11.6216L16.7155 11.6989C16.709 11.8293 16.69 11.944 16.6288 12.0611C16.5665 12.1796 16.4549 12.278 16.3258 12.3164C16.1924 12.3559 16.087 12.2961 15.9725 12.2327C15.8353 12.2075 15.6415 12.1923 15.5219 12.1213C15.4512 12.0792 15.4528 12.0642 15.4352 11.9855C15.5995 11.7497 16.1793 11.7225 16.4516 11.636Z" fill="#FAF7F9"/>
<path d="M12.0683 11.4382C12.0767 11.438 12.0852 11.4382 12.0937 11.4376C12.1597 11.4337 12.2236 11.4289 12.2891 11.4419C12.6344 11.5101 13.4071 11.7881 13.6024 12.0842C13.684 12.2079 13.6593 12.3268 13.6278 12.463C13.2428 12.471 12.7924 12.2463 12.4877 12.019C12.2724 11.8586 12.1095 11.7171 12.0683 11.4382Z" fill="white"/>
<path d="M12.3401 10.1841C12.6353 10.2548 12.9674 10.3569 13.2379 10.4939C13.4109 10.5814 13.6132 10.7134 13.6706 10.9105C13.6994 11.0089 13.6944 11.1652 13.6384 11.2534C13.6012 11.3122 13.5103 11.3084 13.4446 11.3204C13.0772 11.144 12.4943 10.9902 12.1984 10.7222C12.1072 10.6395 12.0973 10.5804 12.0883 10.4617C12.1433 10.3253 12.2218 10.2673 12.3401 10.1841Z" fill="white"/>
<path d="M18.6993 9.05416C18.8933 9.09607 19.1149 9.16744 19.2897 9.26202C19.6402 9.45182 20.1598 9.93388 20.268 10.3296C20.2964 10.4331 20.2813 10.5353 20.2252 10.6251C20.1242 10.7864 19.9552 10.8392 19.7795 10.8795C19.2935 10.6758 18.4997 10.2359 18.2493 9.75937C18.1969 9.65975 18.1721 9.54461 18.2092 9.43551C18.2794 9.22997 18.5188 9.13846 18.6993 9.05416Z" fill="white"/>
</svg>
