<svg width="28" height="36" viewBox="0 0 28 36" fill="none" xmlns="http://www.w3.org/2000/svg">
<path d="M17.2937 0.603975C17.4444 0.597396 17.5868 0.614314 17.7317 0.657181C18.9544 1.01889 21.0156 3.13005 21.8067 4.14676C22.3255 4.8135 22.7888 5.58383 23.1878 6.3277C24.8564 9.43812 25.9078 13.3934 24.8327 16.8677C24.3096 18.558 23.1817 20.2747 21.719 21.2867C21.4161 21.4964 21.0727 21.6494 20.7467 21.8205C21.6193 21.8155 22.6246 21.0793 23.6195 21.6238C23.9996 21.8321 24.1359 22.1539 24.2531 22.5449C24.1503 22.8534 24.0196 23.1464 23.8126 23.3999C23.6038 23.6555 22.9787 24.0045 22.9045 24.3026C23.0051 24.3906 24.7997 24.354 25.1322 24.4239C25.7984 24.5637 26.2964 25.0456 26.6559 25.6022C27.2303 26.4915 27.2863 27.5514 27.0685 28.5666C26.5373 31.0436 24.6113 33.3868 22.5215 34.7359C21.6902 35.2723 20.4263 35.5376 19.4474 35.3229C18.5021 35.1155 17.8726 34.3955 17.3737 33.6185C17.0558 33.9745 16.6312 34.2328 16.1907 34.4108C15.2266 34.8005 13.9839 34.6891 13.0456 34.2868C12.6911 34.5084 12.365 34.8471 11.9744 34.9992C11.864 35.0421 11.7441 35.0671 11.6335 35.0136C11.1949 34.8014 10.791 34.2987 10.389 34.0089C10.0499 33.7644 9.59997 33.6149 9.21696 33.4498L8.6539 33.169C7.93495 33.4998 7.66531 33.8084 6.80491 33.7488C5.37729 33.65 4.02785 32.8634 3.10548 31.7951C2.67474 31.2961 2.3671 30.7556 2.06391 30.1749C1.20446 28.529 0.694304 26.7322 0.837926 24.8566C0.891872 24.1521 1.13874 23.4157 1.69282 22.9466C2.06758 22.6293 2.51652 22.5191 3.00032 22.5612C4.51227 22.693 5.92071 24.0374 6.86501 25.1469C7.12664 25.4544 7.35378 25.7903 7.61396 26.1004C7.72244 25.9116 7.81685 25.7139 7.91517 25.5197C7.43338 25.2353 7.18118 25.0582 6.94927 24.5335C6.95764 24.3594 6.98961 24.1823 7.01167 24.0092C6.61146 23.5439 6.13733 23.1929 5.86668 22.6224C5.74676 22.3697 5.77864 21.8902 5.87499 21.6351C5.96856 21.3873 6.14946 21.2021 6.39285 21.0989C6.96095 20.8581 7.70835 21.0739 8.24835 21.2892C7.32007 20.4498 6.62579 19.6145 6.18182 18.4301C5.75099 17.2805 5.59624 16.0199 5.58039 14.7992C5.5408 11.7527 6.19797 9.49213 7.45359 6.74974C7.91126 5.75017 9.47314 2.67534 10.4452 2.34381C11.2677 2.06332 12.0183 4.12507 12.7041 4.42486C13.031 4.56771 14.2213 4.008 14.595 3.85171C16.1779 3.18987 15.9549 2.72205 16.5424 1.3204C16.696 0.954124 16.9336 0.749035 17.2937 0.603975ZM17.4541 1.30991C17.45 1.3129 17.4457 1.31587 17.4413 1.31891C17.2424 1.46205 17.189 1.65389 17.1152 1.87479C16.9406 2.39765 16.7903 2.95779 16.4863 3.42441C16.0064 4.16115 14.8178 4.51764 14.0246 4.78796C13.6365 4.92021 12.9961 5.22172 12.5914 5.15863C12.1025 5.08239 11.3822 3.90758 11.0482 3.51837C10.8985 3.34395 10.7275 3.1899 10.5497 3.04475C10.2148 3.48161 9.82873 3.90535 9.53014 4.36597C9.22137 4.84227 8.97648 5.38356 8.71667 5.88924C7.45127 8.35219 6.6171 10.8519 6.40812 13.6239C6.34051 14.5205 6.32109 15.4572 6.43877 16.3517C6.66395 18.0634 7.44972 19.7531 8.84535 20.8187C10.3176 21.9428 11.6719 22.2223 13.4878 22.2515C14.0244 22.2601 14.5865 22.2763 15.119 22.203C15.1539 22.1982 15.1888 22.193 15.2236 22.1872C15.1827 21.7561 15.1388 21.2791 15.2192 20.8514L14.527 21.1824C14.5858 21.0185 14.6854 20.8199 14.6643 20.6441C14.5709 20.4864 14.3867 20.4326 14.2188 20.3903C14.0433 20.346 13.8343 20.3096 13.6617 20.3762L13.6262 20.4443C13.8019 20.7722 14.3695 20.7423 14.4308 21.0761C14.2962 21.2033 14.1484 21.2111 13.9675 21.2057C13.5269 21.1927 12.9223 20.9817 12.622 20.6489C12.5416 20.56 12.4867 20.4464 12.4926 20.3242C12.5068 20.0312 13.0259 19.9061 12.8323 19.6292C12.5732 19.5115 12.1481 19.5767 11.8856 19.6767C11.806 19.7072 11.7494 19.7496 11.6923 19.8117C11.6736 19.9201 11.6692 19.9525 11.7326 20.0436C11.8174 20.1656 11.995 20.2407 11.9681 20.4131C11.9619 20.4527 11.9474 20.4923 11.9339 20.5299C11.8292 20.5969 11.7674 20.6079 11.6435 20.58C11.3126 20.5056 10.7217 20.1825 10.5433 19.8877C10.4883 19.7968 10.4956 19.754 10.5125 19.6512C10.5903 19.5614 10.6016 19.5218 10.7216 19.5018L11.0621 19.6357L11.1094 19.613C11.0099 19.3808 10.5995 19.1762 10.4019 18.9996C9.81482 18.4747 9.01097 17.7 8.71354 16.9653C8.74178 16.6002 8.70875 16.169 9.00658 15.9156C9.03282 15.8934 9.05927 15.8714 9.08592 15.8496C9.07384 15.5596 8.87779 15.3156 8.86094 15.0363C8.83988 14.687 8.94162 14.3002 8.98064 13.9506C9.00773 13.7078 9.00093 13.4612 8.99806 13.2172C8.98219 11.867 8.72698 10.5046 8.52306 9.17368C8.45752 8.746 8.29934 8.03809 8.6172 7.70097C8.74565 7.56477 8.91264 7.45338 9.10585 7.44913C9.41604 7.44233 9.76015 7.68144 9.97199 7.89287C10.3019 8.22211 10.514 9.00577 10.9308 9.1702L11.0242 9.13471C11.1215 8.77762 11.1853 8.55073 11.4194 8.25256C10.9609 8.08302 9.88969 7.8012 9.68035 7.33249C9.63647 7.23423 9.64867 7.18083 9.66788 7.07911C9.75739 6.95575 9.84792 6.87861 9.97323 6.79251C10.886 6.5361 12.6913 7.23736 13.5163 7.69906C13.8768 7.90079 14.2107 8.15421 14.3266 8.57012C14.4202 8.90524 14.3837 9.29874 14.4208 9.64576C14.5964 9.73866 14.8267 9.89492 15.0234 9.91348C15.3568 9.66915 15.5002 8.99859 15.7664 8.64604C16.028 8.29963 16.3745 7.96753 16.7496 7.74635C17.4502 7.33323 19.3191 6.79672 20.1286 6.92339C20.2999 6.95017 20.4873 7.01226 20.5939 7.15829C20.6632 7.25326 20.6873 7.37391 20.6662 7.48891C20.6322 7.67518 20.4988 7.85329 20.3428 7.95609C20.1932 8.05467 20.0193 8.1183 19.853 8.18298C20.8381 8.71713 21.0678 9.25054 21.5178 10.2402C21.6447 10.5189 21.8008 10.7756 21.9331 11.0493C21.7826 11.3475 21.6006 11.7918 21.2514 11.8997C20.6952 12.0716 20.5136 11.5656 19.9981 12.1658C20.1682 12.4988 20.4112 13.3646 20.6423 13.5812C20.7055 13.6403 20.8181 13.6767 20.8988 13.7025C21.1817 13.7931 21.647 13.8232 21.8227 14.079C21.8585 14.1977 21.8494 14.2874 21.7928 14.3985C21.701 14.5787 21.5529 14.7261 21.4631 14.9037C21.2541 15.3167 21.298 15.5574 20.8792 15.8663C20.7146 15.8864 20.5485 15.9127 20.3827 15.9182C20.342 16.435 20.2321 16.722 19.8339 17.0638C19.1326 17.6658 18.3089 18.2258 17.6748 18.8937C17.6546 19.295 17.7549 20.384 17.4827 20.6478L17.3987 20.6648C17.2824 20.5384 17.2988 20.394 17.3054 20.2301C17.3233 19.7937 17.2574 19.3655 17.2707 18.9279C16.9877 19.0001 16.6247 19.0646 16.4584 19.3337C16.337 19.5299 16.3846 19.8038 16.2643 19.9968C16.125 20.2202 15.8233 20.3085 15.6827 20.528C15.5755 20.6948 15.6572 21.8555 15.5801 22.2335C16.375 22.2592 17.2964 22.3328 18.0791 22.2036C19.0657 22.0409 21.0674 20.9339 21.7871 20.2562C22.1559 19.9089 22.4515 19.5061 22.7438 19.095C23.762 17.6629 24.3429 16.1474 24.3913 14.3796C24.4135 13.5669 24.3917 12.7271 24.2723 11.9217C23.953 9.76687 22.9178 7.13997 21.7075 5.31783C21.2613 4.64592 20.7229 4.01387 20.1685 3.42952C19.6026 2.83293 18.2589 1.33624 17.4541 1.30991ZM23.6456 25.0501C22.0425 25.134 20.3681 26.2781 19.3227 27.4364C18.6241 28.2104 18.1317 29.1506 17.9719 30.1877C17.8441 31.4662 17.8793 30.9388 17.8734 31.4949C17.863 32.4802 17.9993 33.4098 18.5059 33.9916C18.5517 34.0436 18.6 34.0931 18.6508 34.1403C18.7016 34.1874 18.7547 34.232 18.8099 34.274C18.865 34.3159 18.9221 34.355 18.9812 34.3912C19.0403 34.4274 19.101 34.4607 19.1634 34.4909C19.2257 34.5213 19.2893 34.5484 19.3544 34.5723C19.4195 34.5962 19.4857 34.6168 19.5527 34.6342C19.6198 34.6516 19.6876 34.6656 19.7561 34.6763C19.8245 34.687 19.8934 34.6943 19.9626 34.6981C20.1093 34.7067 20.2583 34.7046 20.405 34.7008C22.0065 34.5325 23.3137 33.5216 24.2988 32.3063C25.436 30.903 26.5605 28.9754 26.3591 27.1095C26.29 26.4703 25.993 25.7751 25.4807 25.3671C24.9952 24.9803 24.2522 24.974 23.6616 25.0476C23.6562 25.0481 23.6508 25.0492 23.6456 25.0501ZM10.0919 7.09228C10.0636 7.21047 10.0519 7.22102 10.118 7.33075C10.97 7.90905 12.1609 7.78548 12.9377 8.49033C13.0268 8.76585 13.128 9.07551 12.9815 9.35236C12.9356 9.43934 12.8729 9.4782 12.7871 9.52065C12.6314 9.54187 12.5005 9.50211 12.3742 9.40728C12.1348 9.22777 12.1288 8.58002 11.7766 8.61959C11.6766 8.6308 11.6415 8.65571 11.5625 8.71745C11.4331 8.97505 11.6534 9.40667 11.2917 9.52671C11.0401 9.61023 10.7754 9.54189 10.5245 9.49082C10.2067 9.03722 10.046 8.49648 9.71988 8.05086C9.46705 7.9657 9.19945 7.85217 8.93024 7.9176C8.84474 7.99032 8.80361 8.02605 8.79697 8.14714C8.7816 8.42763 8.90605 8.72706 8.93029 9.00892C8.99979 9.81721 9.16993 10.5957 9.2856 11.3964C9.45597 12.5758 9.4811 13.9059 9.22402 15.0716C9.33306 15.3428 9.44241 15.7794 9.71634 15.9174C9.83512 15.9102 9.88856 15.8973 9.97303 15.8095C10.2462 15.5256 10.3076 14.9227 10.2837 14.5446C10.2397 13.8502 9.70897 9.88191 9.81746 9.61763L9.88134 9.56878C10.1467 9.63975 10.3034 9.98049 10.4336 10.2059C11.0291 11.2369 11.1113 12.5004 11.2406 13.667C11.2769 13.9949 11.2853 14.375 11.3817 14.6882C11.4155 14.7981 11.511 14.8609 11.6186 14.8877C11.7435 14.9188 11.8427 14.9202 11.9621 14.8726C12.0641 14.7822 12.091 14.6913 12.0984 14.5569C12.1171 14.2185 12.0023 13.3485 12.2572 13.1171C12.3484 13.0341 12.4859 13.0161 12.6044 13.0277C12.7995 13.0467 13.0209 13.1536 13.1989 13.236C13.4016 13.8693 13.27 14.999 13.5825 15.3426C13.6667 15.3669 13.6885 15.3842 13.7701 15.3416C14.3997 15.0132 14.5045 13.0036 15.0477 12.8125C15.2246 12.7503 15.8599 12.9084 16.0625 12.9646C16.1452 12.9874 16.2537 13.0292 16.3001 13.1064C16.5269 13.4829 16.141 15.4513 16.5655 15.8706C16.6411 15.8443 16.6495 15.8334 16.6852 15.7601C16.9607 15.1923 16.8025 14.4695 17.0351 13.8925C17.221 13.4313 17.6329 13.4542 17.7565 13.1953L17.7049 13.0815C17.5403 12.9284 17.155 12.6361 17.1404 12.4076C17.1236 12.1429 17.3931 11.3345 17.5691 11.1438C17.6365 11.0709 17.7232 11.0387 17.8213 11.0384C18.0499 11.0376 18.4976 11.2851 18.6553 11.448C18.9922 11.7966 20.1044 14.771 20.2663 15.3811C20.443 15.4245 20.6264 15.4884 20.8075 15.442C20.9893 15.2688 20.9213 14.9072 21.0898 14.6844C21.1852 14.5581 21.403 14.4169 21.4105 14.2543C21.3371 14.1577 21.2842 14.127 21.1607 14.1111C20.9162 14.0797 20.5676 14.1167 20.4023 13.8991C20.063 13.4519 19.8299 12.6411 19.6067 12.1083C19.8839 11.7276 20.1507 11.5535 20.5622 11.3327C20.722 11.4296 20.9326 11.6013 21.1292 11.5456C21.3063 11.4954 21.4494 11.2558 21.556 11.1145C21.0721 10.2484 20.8127 8.87126 19.7354 8.56659C19.2665 8.43402 18.5566 8.41064 18.1163 8.65227C17.7356 8.86127 17.5486 9.31334 17.1996 9.57762L17.1748 9.59655C17.0259 9.70954 16.897 9.7259 16.7143 9.70128C16.6135 9.6877 16.5269 9.66927 16.4405 9.61444C16.4069 9.46891 16.5156 9.27169 16.595 9.14558C17.0173 8.47434 17.8352 8.18551 18.5719 8.02258C18.7422 7.98494 18.9233 7.95673 19.0883 7.9021C19.2174 7.85941 19.3434 7.77774 19.4761 7.75209C19.666 7.71534 19.8883 7.76045 20.0706 7.69743C20.1615 7.666 20.2265 7.60617 20.2907 7.53692C20.3221 7.42682 20.3204 7.42235 20.2754 7.31682C19.9993 7.14625 19.4919 7.2725 19.1972 7.34229C18.681 7.46447 17.2991 7.80487 16.8968 8.03332C16.5903 8.20735 16.2046 8.63398 16.0201 8.93437C15.8534 9.20415 15.7088 9.48532 15.5863 9.77787C15.3454 10.3643 14.8888 12.0569 14.3822 12.3974L14.2946 12.3892C14.1131 12.0987 14.1949 11.1142 14.2805 10.7821C14.3401 10.5506 14.6368 10.4075 14.6677 10.1862C14.5275 10.0296 14.2564 9.9567 14.0683 9.86628C14.0496 9.3744 14.165 8.66271 13.7713 8.29378C13.2401 7.79594 11.1003 7.04953 10.3724 7.07601C10.2787 7.07936 10.1852 7.08478 10.0919 7.09228ZM2.54539 23.2834C2.15176 23.4265 1.92064 23.6191 1.74322 24.003C1.12603 25.3386 1.58856 27.4331 2.07854 28.7441C2.69196 30.3851 3.83016 32.0541 5.46889 32.7959C6.0943 33.079 6.76831 33.1587 7.43521 32.9829C7.7197 32.8617 7.96695 32.6823 8.207 32.4891C7.94055 32.1443 7.77266 31.7236 7.60414 31.3245C7.16385 30.2822 6.79762 29.2848 6.94855 28.1322C7.00798 27.6783 7.12509 27.2529 7.3254 26.8416C6.41857 25.5039 4.84143 23.6362 3.20185 23.3174C2.99258 23.2767 2.75799 23.2704 2.54539 23.2834ZM15.2138 13.2502C15.2066 13.257 15.1993 13.2636 15.1922 13.2706C14.816 13.6444 14.8324 14.8319 14.1002 15.5284C13.9735 15.6489 13.8048 15.7729 13.6217 15.774C13.4975 15.7747 13.391 15.7083 13.3091 15.6192C12.907 15.1822 13.0288 13.722 12.8294 13.6039C12.707 13.6585 12.6353 13.8295 12.5923 13.9489C12.4708 14.2855 12.5988 14.9888 12.2474 15.1738C11.9524 15.3291 11.4643 15.2412 11.1462 15.2024C11.1338 15.6465 11.1963 16.0885 11.1901 16.5322C11.6472 16.5254 12.788 16.3822 13.1269 16.7257C13.225 16.825 13.2677 17.0002 13.3136 17.1295L13.8262 17.3859C14.1043 17.534 14.3743 17.7281 14.7021 17.6323C15.0709 17.5243 15.4505 16.8325 15.7499 16.5591C16.3738 16.4672 17.0151 16.5462 17.6248 16.366C17.6224 15.7341 17.7031 14.6874 17.5812 14.1022L17.5018 14.0635C17.4134 14.1191 17.3881 14.159 17.3648 14.2629C17.3157 14.4833 17.1917 16.0543 17.0678 16.1395C16.9037 16.2523 16.616 16.2715 16.4249 16.2307C16.3952 16.2241 16.3665 16.2148 16.3387 16.2026C16.3108 16.1904 16.2845 16.1755 16.2596 16.1581C16.2348 16.1407 16.2119 16.1209 16.1909 16.0989C16.1699 16.077 16.1513 16.0531 16.1351 16.0274C15.7792 15.4739 16.3563 13.3706 15.7569 13.2489C15.5877 13.2146 15.3854 13.2356 15.2138 13.2502ZM22.5056 22.1681C21.3922 22.2817 20.3912 22.608 19.4068 23.1363C19.1998 23.2474 18.947 23.3577 18.7939 23.5406C18.7472 23.5961 18.7024 23.6529 18.712 23.7303C18.7494 24.036 18.8992 24.3893 18.9919 24.6856C19.1715 25.2596 19.2761 25.8155 19.3061 26.4172L19.797 26.0108C20.0431 25.8077 20.2866 25.6216 20.5645 25.4634C20.8763 25.2857 22.1413 24.8049 22.2493 24.5756C22.0954 24.4512 21.9228 24.5259 21.7826 24.3755C21.8897 23.8346 23.8234 23.2028 23.2208 22.3213C23.1569 22.2277 23.0413 22.1899 22.9328 22.1721C22.7866 22.148 22.6527 22.1436 22.5056 22.1681ZM9.75651 25.9987C10.0094 26.4942 12.127 26.73 12.4219 27.7458C12.5797 28.289 12.3392 28.8269 12.3913 29.3649L12.424 29.3679C12.5185 29.1806 12.5223 28.9464 12.5468 28.7405C12.5729 28.5205 12.5848 28.2674 12.7063 28.0757C12.9241 27.7314 13.8304 27.3989 14.2298 27.2652C14.57 27.1512 14.9534 27.1041 15.2857 27.2706C15.6115 27.4338 15.7916 27.7611 15.8977 28.0953C16.1223 28.804 15.9616 29.8221 15.9185 30.5579C15.9623 30.5727 15.9905 30.5954 16.0336 30.5736C16.4387 30.368 16.7609 29.5596 16.883 29.1516C17.0882 28.4651 17.138 27.7047 16.786 27.0584C16.7569 27.0044 16.7252 26.9519 16.6907 26.901C16.6564 26.8502 16.6196 26.8011 16.5804 26.754C16.5412 26.7068 16.4996 26.6617 16.4558 26.6186C16.412 26.5757 16.3662 26.5349 16.3183 26.4964C16.2704 26.458 16.2208 26.4221 16.1693 26.3886C16.1178 26.3552 16.0648 26.3244 16.0102 26.2962C15.9557 26.2682 15.8999 26.2428 15.8428 26.2203C15.7856 26.1977 15.7276 26.1781 15.6685 26.1614C15.0769 25.9928 14.3131 26.0698 13.7713 26.3657C13.5008 26.5135 12.7291 27.3307 12.4591 27.2445C12.3027 27.1946 12.1967 27.0494 12.0944 26.9282C11.3923 26.0964 10.8369 25.9429 9.75651 25.9987ZM6.73359 21.7604C6.6018 21.8177 6.50631 21.8488 6.44642 21.9908C6.38706 22.1318 6.42349 22.2792 6.48377 22.4135C6.81843 23.1585 7.99957 23.7611 8.09259 23.9643C7.98337 24.1386 7.71114 24.2603 7.54017 24.3737C7.74438 24.6656 7.94703 24.7869 8.26293 24.9392C8.47378 24.7691 8.64217 24.5852 8.81473 24.3767C9.25024 23.9303 9.75383 23.5318 10.2242 23.1216C9.21637 22.409 8.0239 21.6467 6.73359 21.7604ZM17.4253 23.2098C17.0435 23.7645 17.0948 24.8906 16.7476 25.6079C17.0882 25.9263 17.4255 26.2428 17.6514 26.6573C17.7581 26.853 17.842 27.067 17.8888 27.2853C17.9369 27.5091 17.893 28.0953 18.0035 28.2383L18.0631 28.2084C18.2472 27.8484 18.5334 27.5247 18.6862 27.1583C18.9591 26.5043 18.5773 25.1864 18.3613 24.5187C18.2332 24.1222 18.0305 23.469 17.6316 23.2647C17.5659 23.231 17.4984 23.2173 17.4253 23.2098ZM12.178 30.9201C11.6773 31.3298 10.982 31.7027 10.3701 31.9074C9.90913 31.7938 9.5185 31.5908 9.09955 31.3737C9.77113 32.0039 10.4084 32.6697 11.0749 33.3054C11.3233 33.5693 11.56 33.8228 11.8784 34.0049C12.2843 33.7745 12.633 33.4593 12.9831 33.1535C12.6805 33.1004 12.2624 33.0768 12.071 32.8031C12.0105 32.7165 11.9981 32.615 12.0194 32.5133C12.1004 32.1261 12.5587 31.7751 12.8452 31.5351C12.6645 31.3758 12.3783 30.9845 12.178 30.9201ZM18.69 12.4591C18.7485 12.9854 18.8342 13.7703 18.6223 14.2617L18.5575 14.3067C18.4036 14.1768 18.3768 13.9859 18.3604 13.7918C18.3392 13.5392 18.3583 13.274 18.3667 13.0204L18.3278 13.0043C17.9707 13.5904 17.9835 15.2451 18.047 15.952C18.0706 16.0902 18.0791 16.2037 18.19 16.2995C18.4159 16.4214 18.8574 16.3416 19.0964 16.267C19.232 16.2248 19.3749 16.157 19.4437 16.0253C19.5751 15.7732 19.3632 15.1759 19.5788 14.6143C19.4806 14.3208 18.8952 12.5604 18.7111 12.4682C18.7042 12.4648 18.697 12.4621 18.69 12.4591ZM16.3705 31.6658C15.2122 33.2642 15.1388 32.9031 13.5647 33.8112C13.8629 33.8807 14.1769 33.9722 14.4845 33.972C15.2896 34.0035 16.0235 33.8876 16.6378 33.3224C16.9858 33.002 17.1155 32.631 17.2397 32.1867C17.0331 32.109 16.4213 31.6698 16.3705 31.6658ZM9.04629 26.2428C8.50506 26.5612 8.12208 27.1194 7.9636 27.7235C7.74096 28.572 7.81966 29.5749 8.26705 30.339C8.37523 30.5237 8.49556 30.7212 8.6262 30.89C8.69093 30.7993 8.73688 28.6461 8.92032 28.1506C8.97124 28.0131 9.07755 27.8799 9.16275 27.7607C8.95247 27.5847 8.64769 27.3849 8.61947 27.0866C8.60511 26.9347 8.68666 26.7866 8.78322 26.6753C8.87541 26.5691 9.12239 26.3826 9.11604 26.2579L9.04629 26.2428ZM14.516 23.0287C14.5122 23.2805 14.4483 24.2178 14.518 24.3969C14.6382 24.4509 14.7804 24.4448 14.903 24.3989C15.3062 24.2478 15.4995 23.5268 15.8737 23.5061C15.943 23.573 15.9594 23.6058 15.9578 23.7048C15.9542 23.9343 15.7733 24.2984 15.9344 24.4869C15.9382 24.4912 15.9421 24.4953 15.9459 24.4995C16.1416 24.5754 16.3432 24.6455 16.5349 24.7302C16.6715 24.1965 16.7051 23.6151 16.8799 23.0987C16.1135 23.1137 15.2722 23.1781 14.516 23.0287ZM11.6809 23.0001C10.6275 23.4225 9.81077 23.9818 9.08079 24.851C8.96642 24.9873 8.78208 25.1635 8.70607 25.3239C8.68573 25.3667 8.67407 25.4187 8.66053 25.4645C8.69847 25.4574 8.73697 25.4555 8.7691 25.4333C9.30212 25.1385 9.80347 25.0076 10.4127 25.0307C10.639 24.5049 10.8606 23.9964 11.2792 23.5907C11.4524 23.4229 11.7098 23.276 11.8302 23.0681L11.7983 23.0116L11.6809 23.0001ZM10.4582 28.3954C10.2605 28.7259 10.1892 29.4491 10.2806 29.8237C10.3148 29.9637 10.3823 30.1079 10.5115 30.1823C10.5607 30.2107 10.6145 30.2328 10.6685 30.2501C10.7458 29.8678 10.9895 28.8609 10.7734 28.5378C10.7106 28.444 10.5644 28.415 10.4582 28.3954ZM11.5323 24.0628C11.2279 24.3261 11.0704 24.7203 10.9066 25.0794C11.0908 25.1189 11.2758 25.1648 11.4619 25.1939C11.5859 25.1748 11.759 25.1806 11.8328 25.0641C11.9685 24.8503 11.9921 24.5909 11.9235 24.3515C11.8953 24.2529 11.8396 24.1587 11.7438 24.1132C11.6807 24.0831 11.6011 24.0732 11.5323 24.0628ZM12.9538 23.0305C12.8645 23.125 12.8467 23.1729 12.8497 23.3041C12.853 23.4357 12.9664 23.5462 13.0583 23.6274C13.1964 23.7491 13.4536 23.8873 13.6439 23.8697C13.6775 23.8666 13.7013 23.8245 13.7218 23.7987C13.7452 23.769 13.7557 23.7462 13.7675 23.7109C13.882 23.4762 13.9936 23.2397 14.1151 23.0085C13.7285 23.0166 13.3402 23.0318 12.9538 23.0305ZM14.0752 28.5945C14.0023 28.989 13.803 29.8923 14.0345 30.2384C14.0987 30.3345 14.2341 30.3954 14.3439 30.4211C14.3813 29.9976 14.6294 29.1093 14.3612 28.775C14.2928 28.6899 14.1799 28.6229 14.0752 28.5945ZM13.382 24.252C13.1197 24.2669 12.7651 24.2302 12.5768 24.437C12.4773 24.5465 12.2923 24.8265 12.2977 24.9813C12.2984 25.0029 12.2993 25.0046 12.3023 25.0235L12.3801 25.0443C12.631 25.0458 12.9035 25.0751 13.0997 24.8876C13.2538 24.7401 13.3512 24.5162 13.448 24.3285L13.4358 24.248L13.382 24.252ZM10.5706 15.2862C10.5119 15.5307 10.4564 15.7552 10.3468 15.9825C10.2791 16.123 10.0016 16.1796 10.0134 16.3081C10.0859 16.3328 10.1586 16.3571 10.2315 16.3808C10.3593 16.4155 10.5611 16.5014 10.6862 16.4462C10.7222 16.2285 10.7534 15.5328 10.6364 15.3487C10.6184 15.3204 10.5987 15.3035 10.5706 15.2862Z" fill="white"/>
<path d="M11.1001 9.93157C11.1695 9.94253 11.2325 9.96892 11.2929 10.0042C11.3905 10.0612 11.4498 10.1523 11.4766 10.2613C11.5228 10.449 11.4653 10.6346 11.3704 10.7958C11.2199 10.7316 11.0528 10.6548 10.9904 10.4903C10.9167 10.2959 11.0216 10.1062 11.1001 9.93157Z" fill="white"/>
<path d="M16.4515 11.636C16.5268 11.5972 16.5844 11.6101 16.6639 11.6216L16.7154 11.6989C16.7089 11.8293 16.6898 11.944 16.6286 12.0611C16.5664 12.1796 16.4548 12.278 16.3257 12.3164C16.1923 12.3559 16.0868 12.2961 15.9724 12.2327C15.8352 12.2075 15.6413 12.1923 15.5218 12.1213C15.4511 12.0793 15.4527 12.0642 15.4351 11.9855C15.5994 11.7497 16.1792 11.7225 16.4515 11.636Z" fill="#FAF7F9"/>
<path d="M12.0682 11.4382C12.0766 11.438 12.0851 11.4382 12.0935 11.4377C12.1596 11.4337 12.2235 11.4289 12.289 11.4419C12.6343 11.5101 13.407 11.7881 13.6023 12.0842C13.6838 12.2079 13.6592 12.3269 13.6277 12.463C13.2427 12.4711 12.7923 12.2463 12.4876 12.019C12.2723 11.8586 12.1094 11.7171 12.0682 11.4382Z" fill="white"/>
<path d="M12.34 10.1841C12.6352 10.2548 12.9673 10.357 13.2378 10.4939C13.4108 10.5814 13.6131 10.7135 13.6705 10.9105C13.6993 11.0089 13.6943 11.1652 13.6383 11.2535C13.601 11.3122 13.5101 11.3084 13.4444 11.3204C13.0771 11.144 12.4942 10.9902 12.1983 10.7222C12.107 10.6395 12.0971 10.5805 12.0881 10.4617C12.1432 10.3253 12.2217 10.2673 12.34 10.1841Z" fill="white"/>
<path d="M18.6992 9.05418C18.8932 9.09608 19.1148 9.16745 19.2896 9.26204C19.64 9.45183 20.1597 9.93389 20.2679 10.3296C20.2963 10.4331 20.2812 10.5353 20.225 10.6251C20.1241 10.7865 19.955 10.8392 19.7794 10.8795C19.2934 10.6758 18.4996 10.2359 18.2492 9.75938C18.1968 9.65977 18.172 9.54462 18.209 9.43552C18.2792 9.22998 18.5186 9.13847 18.6992 9.05418Z" fill="white"/>
</svg>
